<svg width="63" height="19" viewBox="0 0 63 19" fill="none" xmlns="http://www.w3.org/2000/svg">
<path d="M10.4062 13.5352C10.4062 13.2305 10.3594 12.957 10.2656 12.7148C10.1797 12.4648 10.0156 12.2383 9.77344 12.0352C9.53125 11.8242 9.19141 11.6172 8.75391 11.4141C8.31641 11.2109 7.75 11 7.05469 10.7812C6.28125 10.5312 5.54688 10.25 4.85156 9.9375C4.16406 9.625 3.55469 9.26172 3.02344 8.84766C2.5 8.42578 2.08594 7.9375 1.78125 7.38281C1.48438 6.82812 1.33594 6.18359 1.33594 5.44922C1.33594 4.73828 1.49219 4.09375 1.80469 3.51562C2.11719 2.92969 2.55469 2.42969 3.11719 2.01562C3.67969 1.59375 4.34375 1.26953 5.10938 1.04297C5.88281 0.816406 6.73047 0.703125 7.65234 0.703125C8.91016 0.703125 10.0078 0.929687 10.9453 1.38281C11.8828 1.83594 12.6094 2.45703 13.125 3.24609C13.6484 4.03516 13.9102 4.9375 13.9102 5.95312H10.418C10.418 5.45312 10.3125 5.01562 10.1016 4.64062C9.89844 4.25781 9.58594 3.95703 9.16406 3.73828C8.75 3.51953 8.22656 3.41016 7.59375 3.41016C6.98438 3.41016 6.47656 3.50391 6.07031 3.69141C5.66406 3.87109 5.35938 4.11719 5.15625 4.42969C4.95312 4.73438 4.85156 5.07812 4.85156 5.46094C4.85156 5.75 4.92188 6.01172 5.0625 6.24609C5.21094 6.48047 5.42969 6.69922 5.71875 6.90234C6.00781 7.10547 6.36328 7.29688 6.78516 7.47656C7.20703 7.65625 7.69531 7.83203 8.25 8.00391C9.17969 8.28516 9.99609 8.60156 10.6992 8.95312C11.4102 9.30469 12.0039 9.69922 12.4805 10.1367C12.957 10.5742 13.3164 11.0703 13.5586 11.625C13.8008 12.1797 13.9219 12.8086 13.9219 13.5117C13.9219 14.2539 13.7773 14.918 13.4883 15.5039C13.1992 16.0898 12.7812 16.5859 12.2344 16.9922C11.6875 17.3984 11.0352 17.707 10.2773 17.918C9.51953 18.1289 8.67188 18.2344 7.73438 18.2344C6.89062 18.2344 6.05859 18.125 5.23828 17.9062C4.41797 17.6797 3.67188 17.3398 3 16.8867C2.33594 16.4336 1.80469 15.8555 1.40625 15.1523C1.00781 14.4492 0.808594 13.6172 0.808594 12.6562H4.33594C4.33594 13.1875 4.41797 13.6367 4.58203 14.0039C4.74609 14.3711 4.97656 14.668 5.27344 14.8945C5.57812 15.1211 5.9375 15.2852 6.35156 15.3867C6.77344 15.4883 7.23438 15.5391 7.73438 15.5391C8.34375 15.5391 8.84375 15.4531 9.23438 15.2812C9.63281 15.1094 9.92578 14.8711 10.1133 14.5664C10.3086 14.2617 10.4062 13.918 10.4062 13.5352ZM27.6914 7.88672V10.6289H18.7852V7.88672H27.6914ZM19.8281 0.9375V18H16.3125V0.9375H19.8281ZM30.1992 0.9375V18H26.6953V0.9375H30.1992ZM47.2734 9.07031V9.87891C47.2734 11.1758 47.0977 12.3398 46.7461 13.3711C46.3945 14.4023 45.8984 15.2812 45.2578 16.0078C44.6172 16.7266 43.8516 17.2773 42.9609 17.6602C42.0781 18.043 41.0977 18.2344 40.0195 18.2344C38.9492 18.2344 37.9688 18.043 37.0781 17.6602C36.1953 17.2773 35.4297 16.7266 34.7812 16.0078C34.1328 15.2812 33.6289 14.4023 33.2695 13.3711C32.918 12.3398 32.7422 11.1758 32.7422 9.87891V9.07031C32.7422 7.76562 32.918 6.60156 33.2695 5.57812C33.6211 4.54688 34.1172 3.66797 34.7578 2.94141C35.4062 2.21484 36.1719 1.66016 37.0547 1.27734C37.9453 0.894531 38.9258 0.703125 39.9961 0.703125C41.0742 0.703125 42.0547 0.894531 42.9375 1.27734C43.8281 1.66016 44.5938 2.21484 45.2344 2.94141C45.8828 3.66797 46.3828 4.54688 46.7344 5.57812C47.0938 6.60156 47.2734 7.76562 47.2734 9.07031ZM43.7227 9.87891V9.04688C43.7227 8.14062 43.6406 7.34375 43.4766 6.65625C43.3125 5.96875 43.0703 5.39062 42.75 4.92188C42.4297 4.45312 42.0391 4.10156 41.5781 3.86719C41.1172 3.625 40.5898 3.50391 39.9961 3.50391C39.4023 3.50391 38.875 3.625 38.4141 3.86719C37.9609 4.10156 37.5742 4.45312 37.2539 4.92188C36.9414 5.39062 36.7031 5.96875 36.5391 6.65625C36.375 7.34375 36.293 8.14062 36.293 9.04688V9.87891C36.293 10.7773 36.375 11.5742 36.5391 12.2695C36.7031 12.957 36.9453 13.5391 37.2656 14.0156C37.5859 14.4844 37.9766 14.8398 38.4375 15.082C38.8984 15.3242 39.4258 15.4453 40.0195 15.4453C40.6133 15.4453 41.1406 15.3242 41.6016 15.082C42.0625 14.8398 42.4492 14.4844 42.7617 14.0156C43.0742 13.5391 43.3125 12.957 43.4766 12.2695C43.6406 11.5742 43.7227 10.7773 43.7227 9.87891ZM56.4492 11.918H52.1016V9.17578H56.4492C57.1211 9.17578 57.668 9.06641 58.0898 8.84766C58.5117 8.62109 58.8203 8.30859 59.0156 7.91016C59.2109 7.51172 59.3086 7.0625 59.3086 6.5625C59.3086 6.05469 59.2109 5.58203 59.0156 5.14453C58.8203 4.70703 58.5117 4.35547 58.0898 4.08984C57.668 3.82422 57.1211 3.69141 56.4492 3.69141H53.3203V18H49.8047V0.9375H56.4492C57.7852 0.9375 58.9297 1.17969 59.8828 1.66406C60.8438 2.14063 61.5781 2.80078 62.0859 3.64453C62.5938 4.48828 62.8477 5.45312 62.8477 6.53906C62.8477 7.64062 62.5938 8.59375 62.0859 9.39844C61.5781 10.2031 60.8438 10.8242 59.8828 11.2617C58.9297 11.6992 57.7852 11.918 56.4492 11.918Z" fill="white"/>
</svg>
